<svg width="18" height="18" viewBox="0 0 18 18" fill="none" xmlns="http://www.w3.org/2000/svg">
<path d="M7.7328 0.405016C8.09221 0.14287 8.53922 0 9 0C9.46078 0 9.90779 0.14287 10.2672 0.405016L17.2422 5.4927C17.4788 5.66529 17.6698 5.88401 17.8009 6.1327C17.9321 6.38139 18.0001 6.65369 18 6.9295V16.159C18 16.6473 17.7867 17.1155 17.4069 17.4608C17.0271 17.806 16.5121 18 15.975 18H13.275C12.7379 18 12.2229 17.806 11.8431 17.4608C11.4633 17.1155 11.25 16.6473 11.25 16.159V11.2497C11.25 11.0869 11.1789 10.9308 11.0523 10.8158C10.9257 10.7007 10.754 10.636 10.575 10.636H7.425C7.24598 10.636 7.07429 10.7007 6.9477 10.8158C6.82112 10.9308 6.75 11.0869 6.75 11.2497V16.159C6.75 16.6473 6.53665 17.1155 6.15689 17.4608C5.77713 17.806 5.26206 18 4.725 18H2.025C1.48794 18 0.97287 17.806 0.593109 17.4608C0.213348 17.1155 0 16.6473 0 16.159V6.9295C0 6.37147 0.279 5.8429 0.7578 5.49352L7.7328 0.405016ZM9.4221 1.36233C9.30234 1.27509 9.15346 1.22755 9 1.22755C8.84654 1.22755 8.69766 1.27509 8.5779 1.36233L1.6029 6.45002C1.52401 6.50749 1.46033 6.58034 1.41655 6.66319C1.37278 6.74604 1.35004 6.83677 1.35 6.92868V16.1582C1.35 16.4978 1.6524 16.7719 2.025 16.7719H4.725C4.90402 16.7719 5.07571 16.7072 5.2023 16.5921C5.32888 16.477 5.4 16.3209 5.4 16.1582V11.2489C5.4 10.7606 5.61335 10.2923 5.99311 9.94709C6.37287 9.60184 6.88794 9.40788 7.425 9.40788H10.575C10.841 9.40788 11.1044 9.45553 11.3501 9.5481C11.5959 9.64067 11.8192 9.77635 12.0072 9.94738C12.1953 10.1184 12.3444 10.3215 12.4461 10.5449C12.5478 10.7684 12.6001 11.0079 12.6 11.2497V16.159C12.6 16.4986 12.9024 16.7727 13.275 16.7727H15.975C16.154 16.7727 16.3257 16.708 16.4523 16.5929C16.5789 16.4778 16.65 16.3218 16.65 16.159V6.9295C16.6501 6.83765 16.6275 6.74697 16.5839 6.66412C16.5402 6.58128 16.4767 6.50839 16.398 6.45084L9.423 1.36315L9.4221 1.36233Z" fill="white"/>
</svg>
