<svg xmlns="http://www.w3.org/2000/svg">

    <!-- top menu -->

    <symbol id="icon-menu" viewBox="0 0 20 20">
        <path d="M19 10H1" stroke-width="2" stroke-linecap="round"/>
        <path d="M19 17H1" stroke-width="2" stroke-linecap="round"/>
        <path d="M19 3H1" stroke-width="2" stroke-linecap="round"/>
    </symbol>

    <symbol id="icon-search" fill="none" viewBox="0 0 20 20">
        <path d="M19 19L15.6602 15.6527M18 10C18 12.1217 17.1571 14.1566 15.6569 15.6569C14.1566 17.1571 12.1217 18 10 18C7.87827 18 5.84344 17.1571 4.34315 15.6569C2.84285 14.1566 2 12.1217 2 10C2 7.87827 2.84285 5.84344 4.34315 4.34315C5.84344 2.84285 7.87827 2 10 2C12.1217 2 14.1566 2.84285 15.6569 4.34315C17.1571 5.84344 18 7.87827 18 10Z" stroke-width="2" stroke-linecap="round"/>
    </symbol>

    <symbol id="icon-settings" viewBox="0 0 20 20" fill="none">
        <path d="M19 15H10.5M19 5H16.5M3.5 15H1M9.5 5H1" stroke-width="2" stroke-linecap="round"/>
        <path d="M16 5C16 5.79565 15.6839 6.55871 15.1213 7.12132C14.5587 7.68393 13.7956 8 13 8C12.2044 8 11.4413 7.68393 10.8787 7.12132C10.3161 6.55871 10 5.79565 10 5C10 4.20435 10.3161 3.44129 10.8787 2.87868C11.4413 2.31607 12.2044 2 13 2C13.7956 2 14.5587 2.31607 15.1213 2.87868C15.6839 3.44129 16 4.20435 16 5Z" stroke-width="1.5" stroke-linecap="round"/>
        <path d="M10 15C10 15.7956 9.68393 16.5587 9.12132 17.1213C8.55871 17.6839 7.79565 18 7 18C6.20435 18 5.44129 17.6839 4.87868 17.1213C4.31607 16.5587 4 15.7956 4 15C4 14.2044 4.31607 13.4413 4.87868 12.8787C5.44129 12.3161 6.20435 12 7 12C7.79565 12 8.55871 12.3161 9.12132 12.8787C9.68393 13.4413 10 14.2044 10 15Z" stroke-width="1.5" stroke-linecap="round"/>
    </symbol>

    <symbol id="icon-user" viewBox="0 0 20 20" fill="none" >
        <path d="M18 18L15 14.5C15 14.5 13 16 10 16C7 16 5 14.5 5 14.5L2 18" stroke-width="2" stroke-linecap="round" stroke-linejoin="round"/>
        <path d="M15 7C15 8.32608 14.4732 9.59785 13.5355 10.5355C12.5979 11.4732 11.3261 12 10 12C8.67392 12 7.40215 11.4732 6.46447 10.5355C5.52678 9.59785 5 8.32608 5 7C5 5.67392 5.52678 4.40215 6.46447 3.46447C7.40215 2.52678 8.67392 2 10 2C11.3261 2 12.5979 2.52678 13.5355 3.46447C14.4732 4.40215 15 5.67392 15 7Z" stroke-width="2" stroke-linecap="round"/>
    </symbol>

    <!-- filters -->

    <symbol id="icon-inbox" viewBox="0 0 24 24" fill="#00D1FF">
        <path d="M10 14.5a2 2 0 104 0h5.5V18a1.5 1.5 0 01-1.5 1.5H6A1.5 1.5 0 014.5 18v-3.5H10z" opacity="0.1"></path>
        <path d="M8.062 4h7.876a2 2 0 011.94 1.515l2.062 8.246a2 2 0 01.06.485V18a2 2 0 01-2 2H6a2 2 0 01-2-2v-3.754a2 2 0 01.06-.485l2.06-8.246A2 2 0 018.061 4zm0 1a1 1 0 00-.97.757L5.03 14.004a1 1 0 00-.03.242V18a1 1 0 001 1h12a1 1 0 001-1v-3.754a1 1 0 00-.03-.242l-2.06-8.247A1 1 0 0015.94 5H8.061zM12 17.25A2.75 2.75 0 019.295 15H7a.5.5 0 110-1h2.75a.5.5 0 01.5.5 1.75 1.75 0 003.5 0 .5.5 0 01.5-.5H17a.5.5 0 110 1h-2.295A2.75 2.75 0 0112 17.25z"></path>
    </symbol>

        <symbol id="icon-today" width="24" height="24" viewBox="0 0 24 24" fill="#80FF00" stroke="none">
            <path d="M6 4.5h12A1.5 1.5 0 0 1 19.5 6v2.5h-15V6A1.5 1.5 0 0 1 6 4.5z" opacity=".1"></path>
            <path d="M6 4h12a2 2 0 0 1 2 2v12a2 2 0 0 1-2 2H6a2 2 0 0 1-2-2V6a2 2 0 0 1 2-2zm0 1a1 1 0 0 0-1 1v12a1 1 0 0 0 1 1h12a1 1 0 0 0 1-1V6a1 1 0 0 0-1-1H6zm1 3h10a.5.5 0 1 1 0 1H7a.5.5 0 0 1 0-1z"></path>
            <text font-family="-apple-system, system-ui, 'Segoe UI', Roboto, Helvetica, Arial, sans-serif, 'Apple Color Emoji', 'Segoe UI Emoji', 'Segoe UI Symbol'" font-size="9" transform="translate(4 2)" font-weight="500">
                <tspan x="8" y="15" text-anchor="middle">07</tspan>
            </text>
        </symbol>

    <symbol id="icon-upcoming" viewBox="0 0 24 24" fill="#DB00FF">
        <path d="M6 4.5h12A1.5 1.5 0 0119.5 6v2.5h-15V6A1.5 1.5 0 016 4.5z" opacity="0.1"></path>
        <path d="M6 4h12a2 2 0 012 2v12a2 2 0 01-2 2H6a2 2 0 01-2-2V6a2 2 0 012-2zm0 1a1 1 0 00-1 1v12a1 1 0 001 1h12a1 1 0 001-1V6a1 1 0 00-1-1H6zm10 12a1 1 0 110-2 1 1 0 010 2zm-4 0a1 1 0 110-2 1 1 0 010 2zm-4 0a1 1 0 110-2 1 1 0 010 2zm8-4a1 1 0 110-2 1 1 0 010 2zm-4 0a1 1 0 110-2 1 1 0 010 2zm-4 0a1 1 0 110-2 1 1 0 010 2zM7 8h10a.5.5 0 110 1H7a.5.5 0 010-1z"></path>
    </symbol>

    <!-- side menu -->

    <symbol id="icon-arrow" viewBox="0 0 20 20" fill="none">
        <path d="M7 16L13 10L7 4" stroke-width="2" stroke-linecap="round" stroke-linejoin="round"/>
    </symbol>

    <symbol id="icon-plus" viewBox="0 0 20 20" stroke="none">
        <rect x="9" y="3" width="2" height="14" rx="1" />
        <rect x="3" y="9" width="14" height="2" rx="1" />
    </symbol>

    <symbol id="icon-dot" viewBox="0 0 20 20" stroke="none">
        <circle cx="10" cy="10" r="5" />
    </symbol>

    <symbol id="icon-dots" viewBox="0 0 20 20" stroke="none">
        <circle cx="4" cy="10" r="2" />
        <circle cx="10" cy="10" r="2" />
        <circle cx="16" cy="10" r="2" />
    </symbol>













</svg>