<svg width="24" height="24" viewBox="0 0 24 24" fill="none" xmlns="http://www.w3.org/2000/svg">
<g clip-path="url(#clip0_105_14)">
<path opacity="0.1" d="M10 14.5C10 15.0304 10.2107 15.5391 10.5858 15.9142C10.9609 16.2893 11.4696 16.5 12 16.5C12.5304 16.5 13.0391 16.2893 13.4142 15.9142C13.7893 15.5391 14 15.0304 14 14.5H19.5V18C19.5 18.3978 19.342 18.7794 19.0607 19.0607C18.7794 19.342 18.3978 19.5 18 19.5H6C5.60218 19.5 5.22064 19.342 4.93934 19.0607C4.65804 18.7794 4.5 18.3978 4.5 18V14.5H10Z" fill="#00D1FF"/>
<path d="M8.062 4H15.938C16.384 4.00007 16.8172 4.1492 17.1687 4.42371C17.5202 4.69821 17.7698 5.08232 17.878 5.515L19.94 13.761C19.9798 13.9196 19.9999 14.0825 20 14.246V18C20 18.5304 19.7893 19.0391 19.4142 19.4142C19.0391 19.7893 18.5304 20 18 20H6C5.46957 20 4.96086 19.7893 4.58579 19.4142C4.21071 19.0391 4 18.5304 4 18V14.246C4.0001 14.0825 4.02025 13.9196 4.06 13.761L6.12 5.515C6.22819 5.08215 6.47801 4.69792 6.82972 4.4234C7.18143 4.14888 7.61484 3.99984 8.061 4H8.062ZM8.062 5C7.83907 5.00001 7.62254 5.0745 7.44679 5.21166C7.27105 5.34881 7.14617 5.54075 7.092 5.757L5.03 14.004C5.01017 14.0831 5.00009 14.1644 5 14.246V18C5 18.2652 5.10536 18.5196 5.29289 18.7071C5.48043 18.8946 5.73478 19 6 19H18C18.2652 19 18.5196 18.8946 18.7071 18.7071C18.8946 18.5196 19 18.2652 19 18V14.246C18.9999 14.1644 18.9898 14.0831 18.97 14.004L16.91 5.757C16.8558 5.54075 16.731 5.34881 16.5552 5.21166C16.3795 5.0745 16.1629 5.00001 15.94 5H8.061H8.062ZM12 17.25C11.3572 17.2502 10.7347 17.0252 10.2406 16.6142C9.74643 16.2032 9.41186 15.632 9.295 15H7C6.86739 15 6.74021 14.9473 6.64645 14.8536C6.55268 14.7598 6.5 14.6326 6.5 14.5C6.5 14.3674 6.55268 14.2402 6.64645 14.1464C6.74021 14.0527 6.86739 14 7 14H9.75C9.88261 14 10.0098 14.0527 10.1036 14.1464C10.1973 14.2402 10.25 14.3674 10.25 14.5C10.25 14.9641 10.4344 15.4092 10.7626 15.7374C11.0908 16.0656 11.5359 16.25 12 16.25C12.4641 16.25 12.9092 16.0656 13.2374 15.7374C13.5656 15.4092 13.75 14.9641 13.75 14.5C13.75 14.3674 13.8027 14.2402 13.8964 14.1464C13.9902 14.0527 14.1174 14 14.25 14H17C17.1326 14 17.2598 14.0527 17.3536 14.1464C17.4473 14.2402 17.5 14.3674 17.5 14.5C17.5 14.6326 17.4473 14.7598 17.3536 14.8536C17.2598 14.9473 17.1326 15 17 15H14.705C14.5881 15.632 14.2536 16.2032 13.7594 16.6142C13.2653 17.0252 12.6428 17.2502 12 17.25Z" fill="#00D1FF"/>
</g>
<defs>
<clipPath id="clip0_105_14">
<rect width="24" height="24" rx="10" fill="white"/>
</clipPath>
</defs>
</svg>
