<svg width="18" height="18" viewBox="0 0 18 18" fill="none" xmlns="http://www.w3.org/2000/svg">
<path d="M18 4.57143H15.3643C15.0429 3.09286 13.7571 2 12.2143 2C10.6714 2 9.38571 3.09286 9.06429 4.57143H0V5.85714H9.06429C9.38571 7.33571 10.6714 8.42857 12.2143 8.42857C13.7571 8.42857 15.0429 7.33571 15.3643 5.85714H18V4.57143ZM12.2143 7.14286C11.1214 7.14286 10.2857 6.30714 10.2857 5.21429C10.2857 4.12143 11.1214 3.28571 12.2143 3.28571C13.3071 3.28571 14.1429 4.12143 14.1429 5.21429C14.1429 6.30714 13.3071 7.14286 12.2143 7.14286ZM0 14.8571H2.63571C2.95714 16.3357 4.24286 17.4286 5.78571 17.4286C7.32857 17.4286 8.61429 16.3357 8.93571 14.8571H18V13.5714H8.93571C8.61429 12.0929 7.32857 11 5.78571 11C4.24286 11 2.95714 12.0929 2.63571 13.5714H0V14.8571ZM5.78571 12.2857C6.87857 12.2857 7.71429 13.1214 7.71429 14.2143C7.71429 15.3071 6.87857 16.1429 5.78571 16.1429C4.69286 16.1429 3.85714 15.3071 3.85714 14.2143C3.85714 13.1214 4.69286 12.2857 5.78571 12.2857Z" fill="white"/>
</svg>
