<svg width="24" height="24" viewBox="0 0 24 24" fill="none" xmlns="http://www.w3.org/2000/svg">
<path opacity="0.1" d="M6 4.5H18C18.3978 4.5 18.7794 4.65804 19.0607 4.93934C19.342 5.22064 19.5 5.60218 19.5 6V8.5H4.5V6C4.5 5.60218 4.65804 5.22064 4.93934 4.93934C5.22064 4.65804 5.60218 4.5 6 4.5Z" fill="#80FF00"/>
<path d="M6 4H18C18.5304 4 19.0391 4.21071 19.4142 4.58579C19.7893 4.96086 20 5.46957 20 6V18C20 18.5304 19.7893 19.0391 19.4142 19.4142C19.0391 19.7893 18.5304 20 18 20H6C5.46957 20 4.96086 19.7893 4.58579 19.4142C4.21071 19.0391 4 18.5304 4 18V6C4 5.46957 4.21071 4.96086 4.58579 4.58579C4.96086 4.21071 5.46957 4 6 4ZM6 5C5.73478 5 5.48043 5.10536 5.29289 5.29289C5.10536 5.48043 5 5.73478 5 6V18C5 18.2652 5.10536 18.5196 5.29289 18.7071C5.48043 18.8946 5.73478 19 6 19H18C18.2652 19 18.5196 18.8946 18.7071 18.7071C18.8946 18.5196 19 18.2652 19 18V6C19 5.73478 18.8946 5.48043 18.7071 5.29289C18.5196 5.10536 18.2652 5 18 5H6ZM7 8H17C17.1326 8 17.2598 8.05268 17.3536 8.14645C17.4473 8.24021 17.5 8.36739 17.5 8.5C17.5 8.63261 17.4473 8.75979 17.3536 8.85355C17.2598 8.94732 17.1326 9 17 9H7C6.86739 9 6.74021 8.94732 6.64645 8.85355C6.55268 8.75979 6.5 8.63261 6.5 8.5C6.5 8.36739 6.55268 8.24021 6.64645 8.14645C6.74021 8.05268 6.86739 8 7 8Z" fill="#80FF00"/>
<path d="M9.51709 17.0895C9.03556 17.0895 8.6254 16.9585 8.28662 16.6964C7.94784 16.4322 7.68896 16.0497 7.50999 15.549C7.33101 15.0462 7.24152 14.4389 7.24152 13.7273C7.24152 13.0199 7.33101 12.4158 7.50999 11.9151C7.6911 11.4123 7.95104 11.0288 8.28982 10.7646C8.63073 10.4982 9.03982 10.3651 9.51709 10.3651C9.99436 10.3651 10.4024 10.4982 10.7412 10.7646C11.0821 11.0288 11.342 11.4123 11.521 11.9151C11.7021 12.4158 11.7927 13.0199 11.7927 13.7273C11.7927 14.4389 11.7032 15.0462 11.5242 15.549C11.3452 16.0497 11.0863 16.4322 10.7476 16.6964C10.4088 16.9585 9.99862 17.0895 9.51709 17.0895ZM9.51709 16.3864C9.99436 16.3864 10.3651 16.1562 10.6293 15.696C10.8935 15.2358 11.0256 14.5795 11.0256 13.7273C11.0256 13.1605 10.9649 12.6779 10.8434 12.2795C10.7241 11.881 10.5515 11.5774 10.3257 11.3686C10.102 11.1598 9.83243 11.0554 9.51709 11.0554C9.04408 11.0554 8.67441 11.2887 8.40807 11.7553C8.14173 12.2198 8.00857 12.8771 8.00857 13.7273C8.00857 14.294 8.06823 14.7756 8.18754 15.1719C8.30686 15.5682 8.47838 15.8697 8.7021 16.0763C8.92796 16.283 9.19962 16.3864 9.51709 16.3864ZM13.0359 17L15.9635 11.2088V11.1577H12.5885V10.4545H16.7816V11.196L13.8669 17H13.0359Z" fill="#80FF00"/>
</svg>
